Coordinates
version=1
nRows=15
nColumns=63
inDegrees=yes

Units are S.I. units (second, meters, Newtons, ...)
If the header above contains a line with 'inDegrees', this indicates whether rotational values are in degrees (yes) or radians (no).

endheader
time	pelvis_tilt	pelvis_list	pelvis_rotation	pelvis_tx	pelvis_ty	pelvis_tz	hip_flexion_r	hip_adduction_r	hip_rotation_r	knee_angle_r	knee_angle_r_beta	ankle_angle_r	subtalar_angle_r	mtp_angle_r	hip_flexion_l	hip_adduction_l	hip_rotation_l	knee_angle_l	knee_angle_l_beta	ankle_angle_l	subtalar_angle_l	mtp_angle_l	L5_S1_Flex_Ext	L5_S1_Lat_Bending	L5_S1_axial_rotation	L4_L5_Flex_Ext	L4_L5_Lat_Bending	L4_L5_axial_rotation	L3_L4_Flex_Ext	L3_L4_Lat_Bending	L3_L4_axial_rotation	L2_L3_Flex_Ext	L2_L3_Lat_Bending	L2_L3_axial_rotation	L1_L2_Flex_Ext	L1_L2_Lat_Bending	L1_L2_axial_rotation	L1_T12_Flex_Ext	L1_T12_Lat_Bending	L1_T12_axial_rotation	Abs_r3	Abs_r2	Abs_r1	Abs_t1	Abs_t2	neck_flexion	neck_bending	neck_rotation	arm_flex_r	arm_add_r	arm_rot_r	elbow_flex_r	pro_sup_r	wrist_flex_r	wrist_dev_r	arm_flex_l	arm_add_l	arm_rot_l	elbow_flex_l	pro_sup_l	wrist_flex_l	wrist_dev_l
5.891304	4.297685	-3.371078	86.661666	0.216274	0.974136	0.557252	-3.445285	0.683017	4.971707	2.057471	0.035910	22.785609	6.427714	0.000000	-3.520345	-0.669644	6.769766	0.918357	0.016028	21.346915	-8.833597	0.000000	0.016848	0.137585	-0.665651	0.031288	0.182988	-0.707254	0.027679	0.334524	-0.707254	0.019255	0.334524	-0.582445	0.015645	0.280563	-0.540842	0.009627	0.213119	-0.499238	0.120341	1.556387	-3.702153	0.000000	0.000000	-0.347963	-0.464955	21.560532	14.099298	-6.870968	67.516898	39.641403	53.704301	-1.896721	3.143128	5.117109	-8.422100	47.880606	36.839763	58.944540	2.199866	9.831092
5.913043	4.458138	-3.430824	87.178959	0.215258	0.974008	0.557567	-3.414861	0.871007	4.699414	2.011682	0.035110	22.794256	6.216063	0.000000	-3.267577	-0.836003	6.841425	1.123271	0.019605	21.535094	-8.553945	0.000000	0.023825	0.166117	-0.683163	0.044245	0.220936	-0.725861	0.039142	0.403898	-0.725861	0.027229	0.403898	-0.597768	0.022124	0.338747	-0.555070	0.013613	0.257316	-0.512372	0.170177	1.879153	-3.799548	0.000000	0.000000	-0.077543	-0.964505	21.758723	14.233882	-6.672666	68.954469	40.129709	51.343380	-1.120489	3.824041	5.371222	-8.298203	48.404500	38.945541	58.408758	2.103826	10.754913
5.934783	4.618814	-3.505076	87.761431	0.214206	0.973837	0.557817	-3.384867	1.062794	4.462143	1.951935	0.034068	22.771968	5.850680	0.000000	-2.994005	-1.001263	6.987223	1.369101	0.023895	21.627230	-8.359541	0.000000	0.033699	0.193366	-0.715372	0.062582	0.257177	-0.760083	0.055364	0.470150	-0.760083	0.038514	0.470150	-0.625951	0.031293	0.394312	-0.581240	0.019255	0.299524	-0.536529	0.240707	2.187393	-3.978687	0.000000	0.000000	0.284903	-1.491622	21.864035	14.253344	-6.570608	70.030208	40.562773	49.660592	-0.135162	4.581571	5.583739	-8.229718	48.998696	40.956330	57.833383	1.728945	11.439379
5.956522	4.762108	-3.587550	88.396294	0.213164	0.973619	0.557987	-3.363209	1.241218	4.239164	1.880111	0.032814	22.737364	5.377320	0.000000	-2.716857	-1.148365	7.255124	1.632197	0.028487	21.610119	-8.320163	0.000000	0.045771	0.216262	-0.764776	0.085002	0.287628	-0.812574	0.075197	0.525819	-0.812574	0.052312	0.525819	-0.669179	0.042503	0.441001	-0.621380	0.026154	0.334990	-0.573582	0.326938	2.446398	-4.253454	0.000000	0.000000	0.746445	-1.999015	21.892403	14.187508	-6.546253	70.775267	40.918941	48.810427	1.034556	5.384572	5.762126	-8.235090	49.651281	42.822451	57.407796	1.135753	12.022679
5.978261	4.878202	-3.668751	89.076345	0.212152	0.973362	0.558042	-3.357565	1.395695	3.909260	1.807757	0.031551	22.735357	4.972849	0.000000	-2.454365	-1.269981	7.620791	1.893627	0.033050	21.516428	-8.379936	0.000000	0.059428	0.233048	-0.836564	0.110364	0.309954	-0.888850	0.097635	0.566633	-0.888850	0.067921	0.566633	-0.731994	0.055185	0.475232	-0.679709	0.033957	0.360992	-0.627423	0.424491	2.636287	-4.652720	0.000000	0.000000	1.277562	-2.442980	21.883752	14.130739	-6.617015	71.556946	41.179705	48.451039	2.141376	6.132617	5.883807	-8.297481	50.192467	44.484737	57.400269	0.441235	12.593066
6.000000	4.960430	-3.748648	89.795899	0.211195	0.973055	0.557969	-3.373127	1.523576	3.554239	1.726973	0.030141	22.743765	4.521484	0.000000	-2.211696	-1.362389	8.077224	2.135978	0.037280	21.380400	-8.501711	0.000000	0.074718	0.242752	-0.929668	0.138758	0.322860	-0.987772	0.122754	0.590227	-0.987772	0.085395	0.590227	-0.813459	0.069383	0.495019	-0.755355	0.042694	0.376022	-0.697251	0.533700	2.746057	-5.170534	0.000000	0.000000	1.837757	-2.782469	21.876846	14.022383	-6.731468	72.029603	41.383456	49.029812	3.166182	6.891339	5.960701	-8.415838	50.659107	45.903899	57.857525	-0.244487	13.164800
6.021739	5.005508	-3.826815	90.526935	0.210314	0.972703	0.557806	-3.399789	1.618360	3.110320	1.650456	0.028806	22.781680	4.148976	0.000000	-1.993909	-1.421904	8.623259	2.341173	0.040861	21.211875	-8.694051	0.000000	0.090841	0.244766	-1.043025	0.168701	0.325539	-1.108214	0.149243	0.595125	-1.108214	0.103822	0.595125	-0.912647	0.084355	0.499128	-0.847458	0.051907	0.379143	-0.782269	0.648868	2.768846	-5.800993	0.000000	0.000000	2.392653	-2.985693	21.905567	13.952049	-6.893153	72.516334	41.564540	49.907799	3.855152	7.564975	5.945462	-8.537072	50.747452	47.026900	58.943637	-0.713431	13.695102
6.043478	5.006853	-3.908008	91.200048	0.209596	0.972309	0.557564	-3.422537	1.668877	2.618057	1.585831	0.027678	22.851578	3.889796	0.000000	-1.797939	-1.440429	9.096967	2.512730	0.043855	21.062908	-8.806591	0.000000	0.107855	0.238878	-1.159021	0.200297	0.317708	-1.231460	0.177195	0.580809	-1.231460	0.123267	0.580809	-1.014143	0.100154	0.487121	-0.941705	0.061628	0.370022	-0.869266	0.770397	2.702239	-6.446127	0.000000	0.000000	2.908214	-3.043062	21.993262	13.814497	-7.053859	72.583354	41.766365	51.502717	4.355702	8.284805	5.868246	-8.640239	50.568944	47.819586	60.322898	-0.945227	14.134059
6.065217	4.972927	-3.978552	91.790886	0.209037	0.971904	0.557278	-3.450842	1.679965	2.085555	1.534399	0.026780	22.948331	3.767172	0.000000	-1.647008	-1.423248	9.529453	2.634138	0.045974	20.891495	-8.923670	0.000000	0.123599	0.226581	-1.271151	0.229535	0.301353	-1.350598	0.203060	0.550909	-1.350598	0.141261	0.550909	-1.112257	0.114774	0.462044	-1.032810	0.070624	0.350974	-0.953363	0.882853	2.563130	-7.069762	0.000000	0.000000	3.359053	-2.971930	22.114943	13.693756	-7.219786	72.570482	42.001487	52.803512	4.622571	8.964482	5.795765	-8.746720	50.530310	48.290577	61.357172	-1.048389	14.350214
6.086957	4.915482	-4.043687	92.323700	0.208562	0.971458	0.556912	-3.484281	1.663400	1.455989	1.495372	0.026099	23.089574	3.837272	0.000000	-1.536073	-1.381903	10.022258	2.711542	0.047325	20.696750	-9.124624	0.000000	0.139336	0.210912	-1.379318	0.258761	0.280513	-1.465525	0.228916	0.512811	-1.465525	0.159247	0.512811	-1.206903	0.129388	0.430091	-1.120696	0.079617	0.326702	-1.034488	0.995265	2.385876	-7.671350	0.000000	0.000000	3.741056	-2.797946	22.322905	13.497760	-7.373391	72.166365	42.302892	54.291593	4.790896	9.754554	5.644770	-8.778887	50.197519	48.473990	62.434900	-0.731446	14.435163
6.108696	4.834554	-4.080248	92.713332	0.208254	0.971031	0.556524	-3.539848	1.613398	0.966174	1.461574	0.025509	23.231114	3.902293	0.000000	-1.498116	-1.311347	10.480879	2.736375	0.047759	20.481443	-9.387162	0.000000	0.151721	0.192696	-1.465928	0.281761	0.256285	-1.557548	0.249263	0.468520	-1.557548	0.173402	0.468520	-1.282687	0.140888	0.392945	-1.191066	0.086693	0.298486	-1.099446	1.083728	2.179812	-8.153049	0.000000	0.000000	4.048408	-2.536570	22.588250	13.373150	-7.518525	71.905227	42.612155	55.020948	4.883151	10.341183	5.502900	-8.817364	50.023176	48.502153	62.857853	-0.362201	14.215430
6.130435	4.745709	-4.100748	92.981758	0.208063	0.970630	0.556110	-3.602716	1.548471	0.571880	1.437976	0.025097	23.373660	3.979295	0.000000	-1.516555	-1.228170	10.884136	2.705979	0.047228	20.259147	-9.669808	0.000000	0.163396	0.175053	-1.529227	0.303443	0.232821	-1.624804	0.268444	0.425625	-1.624804	0.186746	0.425625	-1.338074	0.151730	0.356969	-1.242497	0.093365	0.271158	-1.146920	1.167124	1.980239	-8.505102	0.000000	0.000000	4.278337	-2.221405	22.951718	13.277246	-7.630716	71.655331	42.901447	55.367572	4.983624	10.800074	5.372932	-8.829724	49.877789	48.402640	62.795998	0.161603	13.845193
6.152174	4.641341	-4.095874	93.148013	0.207977	0.970257	0.555662	-3.686608	1.462539	0.304958	1.414886	0.024694	23.527354	4.046342	0.000000	-1.593397	-1.128309	11.332614	2.630659	0.045914	20.057121	-10.048600	0.000000	0.172568	0.157047	-1.570562	0.320476	0.208873	-1.668722	0.283512	0.381845	-1.668722	0.197228	0.381845	-1.374241	0.160247	0.320251	-1.276081	0.098605	0.243266	-1.177921	1.232638	1.776551	-8.734993	0.000000	0.000000	4.442003	-1.835437	23.423195	13.240894	-7.706488	71.556452	43.154804	55.256647	5.126365	11.046783	5.245983	-8.858876	49.739045	48.333407	62.152774	0.648528	13.510607
6.173913	4.518753	-4.047527	93.176460	0.208027	0.969967	0.555161	-3.804373	1.348443	0.179765	1.393796	0.024326	23.697597	4.133668	0.000000	-1.755740	-1.002296	11.833005	2.495042	0.043547	19.834779	-10.645969	0.000000	0.176383	0.138246	-1.577946	0.327561	0.183867	-1.676568	0.289779	0.336132	-1.676568	0.201588	0.336132	-1.380703	0.163789	0.281912	-1.282081	0.100785	0.214143	-1.183460	1.259885	1.563869	-8.776064	0.000000	0.000000	4.575598	-1.434283	23.891030	13.248700	-7.739700	71.559540	43.338269	54.925727	5.329278	11.126364	5.193772	-8.918968	49.742289	48.290564	61.084268	1.030604	13.147563
6.195652	4.375008	-3.969126	93.087511	0.208228	0.969736	0.554574	-3.950298	1.210835	0.297103	1.359933	0.023735	23.858894	4.070470	0.000000	-1.978989	-0.852888	12.249344	2.318119	0.040459	19.672855	-11.255642	0.000000	0.176892	0.117676	-1.560283	0.328507	0.156509	-1.657801	0.290617	0.286118	-1.657801	0.202170	0.286118	-1.365247	0.164262	0.239965	-1.267730	0.101076	0.182280	-1.170212	1.263525	1.331176	-8.677825	0.000000	0.000000	4.680185	-1.009108	24.336330	13.322886	-7.736016	71.823621	43.479236	53.939227	5.413337	11.012338	5.081480	-8.970659	49.425387	48.387023	60.502146	1.269241	13.080981
